<?xml version="1.0" encoding="UTF-8" standalone="no"?>
<svg
   xmlns:dc="http://purl.org/dc/elements/1.1/"
   xmlns:cc="http://creativecommons.org/ns#"
   xmlns:rdf="http://www.w3.org/1999/02/22-rdf-syntax-ns#"
   xmlns:svg="http://www.w3.org/2000/svg"
   xmlns="http://www.w3.org/2000/svg"
   xmlns:sodipodi="http://sodipodi.sourceforge.net/DTD/sodipodi-0.dtd"
   xmlns:inkscape="http://www.inkscape.org/namespaces/inkscape"
   width="700"
   height="701"
   viewBox="0 0 700 701"
   version="1.1"
   id="svg4"
   sodipodi:docname="elo-logo.svg"
   style="fill:none"
   inkscape:version="0.92.0 r15299"
   inkscape:export-filename="C:\Users\suitedoalex\sites\elo-logo-0.png"
   inkscape:export-xdpi="561.73999"
   inkscape:export-ydpi="561.73999">
  <metadata
     id="metadata10">
    <rdf:RDF>
      <cc:Work
         rdf:about="">
        <dc:format>image/svg+xml</dc:format>
        <dc:type
           rdf:resource="http://purl.org/dc/dcmitype/StillImage" />
        <dc:title></dc:title>
      </cc:Work>
    </rdf:RDF>
  </metadata>
  <defs
     id="defs8" />
  <sodipodi:namedview
     pagecolor="#ffffff"
     bordercolor="#666666"
     borderopacity="1"
     objecttolerance="10"
     gridtolerance="10"
     guidetolerance="10"
     inkscape:pageopacity="0"
     inkscape:pageshadow="2"
     inkscape:window-width="1920"
     inkscape:window-height="1017"
     id="namedview6"
     showgrid="false"
     inkscape:zoom="0.42138631"
     inkscape:cx="82.252974"
     inkscape:cy="555.43207"
     inkscape:window-x="-8"
     inkscape:window-y="-8"
     inkscape:window-maximized="1"
     inkscape:current-layer="svg4" />
  <path
     d="m 40.02407,333.62538 h 45.795123 c 8.212707,-43.58009 46.111297,-78.63851 94.430777,-78.63851 54.94936,0 93.48153,39.16473 93.48153,98.22034 0,6.31413 -0.63293,11.37034 -1.26585,15.79291 h -147.8059 c 6.94707,26.84535 29.0534,42.63827 55.58229,42.63827 22.73926,0 39.7901,-8.84585 53.37497,-24.31436 l 27.16254,24.94729 c -18.00022,20.52401 -44.84559,34.74181 -80.53751,34.74181 -48.31876,0 -86.21785,-34.42535 -94.430561,-78.00508 H 40.02407 Z m 194.54234,0 c -1.89878,-11.05316 -6.94635,-21.15722 -14.20988,-28.42054 -9.47085,-9.47856 -23.37219,-15.47601 -40.10656,-15.47601 -16.73437,0 -30.31924,5.68871 -40.42303,15.79248 -6.94706,6.94685 -12.63547,16.4254 -15.47573,28.11127 h 110.2152 z m 66.63617,-77.37266 h 39.78937 v 151.59532 h 72.00813 v 37.89924 h -71.3752 c -26.21243,0 -40.4223,-14.20987 -40.4223,-40.42303 z M 420.588,350.99989 c 0,-51.47604 42.00463,-96.00531 97.58764,-96.00531 49.26814,0 87.79239,34.74196 96.0053,78.638 h 45.79499 v 35.37547 h -45.79499 c -8.52938,43.57973 -47.06155,78.00508 -96.0053,78.00508 -55.89948,-0.008 -97.58764,-44.22059 -97.58764,-96.01324 z m 97.58764,58.73972 c 33.15948,0 57.7896,-25.26376 57.7896,-58.42326 0,-32.84303 -25.26304,-59.06353 -57.7896,-59.06353 -33.16022,0 -57.79826,25.26341 -57.79826,58.73914 0,32.5345 25.27097,58.74765 57.79826,58.74765 z"
     id="path2"
     inkscape:connector-curvature="0"
     style="fill:#003933;stroke-width:7.20874262"
     inkscape:export-filename="C:\Users\suitedoalex\sites\elo-logo-2.png"
     inkscape:export-xdpi="108.39551"
     inkscape:export-ydpi="108.39551" />
</svg>
